<?xml version="1.0" encoding="utf-8"?>
<!-- Generator: Adobe Illustrator 21.0.0, SVG Export Plug-In . SVG Version: 6.00 Build 0)  -->
<svg version="1.1" id="Ebene_1" xmlns="http://www.w3.org/2000/svg" xmlns:xlink="http://www.w3.org/1999/xlink" x="0px" y="0px"
	 viewBox="0 0 76 30.7" style="enable-background:new 0 0 76 30.7;" xml:space="preserve">
<style type="text/css">
	.st0{fill:#BACF28;}
</style>
<path class="st0" d="M22.9,30.4v-2.8l-2-0.4c-0.6-0.1-0.6-0.2-0.6-0.8V0h-7.2v2.8l2,0.4c0.5,0.1,0.6,0.2,0.6,0.8v5.6
	c-0.6-0.1-3.8-0.7-7.3-0.7c-7,0-8.4,4.7-8.4,10.9c0,6.4,1.1,10.9,8.1,10.9c2.1,0,3.4-0.2,3.4-0.2l2.9-2c0.4-0.2,0.7-0.4,1.2-0.4
	c0.7,0,0.9,0.5,0.9,0.9l0.2,1.5L22.9,30.4L22.9,30.4z M15.8,26.4c0,0-3,0.8-5.7,0.8c-4.6,0-5.5-1.5-5.5-7.3c0-5.8,0.9-7.4,5.5-7.4
	c2.3,0,5.2,0.4,5.7,0.5V26.4z M49.8,30.4H44l-7.5-9.2c-0.4-0.5-0.8-0.9-1.5-0.9c-0.9,0-1.1,0.4-1.1,1.2v4.8c0,0.6,0.1,0.7,0.6,0.8
	l2,0.4v2.8h-9.8v-2.8l2-0.4c0.5-0.1,0.6-0.2,0.6-0.8V4.1c0-0.6-0.1-0.7-0.6-0.8l-2-0.4V0h7.2v17c0,0.8,0.3,1.2,1.1,1.2
	c0.6,0,1.1-0.4,1.5-0.8l8-8.3h4.8V12l-2.1,0.4c-0.4,0.1-0.6,0.1-1,0.4L40,19.1l6.6,7.3c0.4,0.4,0.6,0.5,1,0.6l2.2,0.5L49.8,30.4
	L49.8,30.4z M76,30.4v-2.8l-2-0.4c-0.6-0.1-0.6-0.2-0.6-0.8V0h-7.2v2.8l2,0.4c0.5,0.1,0.6,0.2,0.6,0.8v5.6c-0.6-0.1-3.9-0.7-7.3-0.7
	c-7,0-8.4,4.7-8.4,10.9c0,6.4,1.1,10.9,8.1,10.9c2,0,3.4-0.2,3.4-0.2l2.9-2c0.4-0.2,0.7-0.4,1.2-0.4c0.7,0,0.9,0.5,0.9,0.9l0.2,1.5
	L76,30.4L76,30.4z M68.8,26.4c0,0-3,0.8-5.7,0.8c-4.6,0-5.5-1.5-5.5-7.3c0-5.8,0.9-7.4,5.5-7.4c2.3,0,5.2,0.4,5.7,0.5V26.4z"/>
</svg>
